<svg xmlns="http://www.w3.org/2000/svg" version="1.1" xmlns:xlink="http://www.w3.org/1999/xlink" xmlns:svgjs="http://svgjs.dev/svgjs" viewBox="-0.5 -0.5 9 12" width="9cm" height="12cm"><g class="crease"><line x1="4" y1="0" x2="0" y2="1" class="V" stroke-opacity="1" data-index="6" stroke-width="0.1" stroke="#0000ff"></line><line x1="4" y1="0" x2="8" y2="1" class="V" stroke-opacity="1" data-index="8" stroke-width="0.1" stroke="#0000ff"></line><line x1="0" y1="2" x2="4" y2="0" class="M" stroke-opacity="1" data-index="10" stroke-width="0.1" stroke="#ff0000"></line><line x1="4" y1="0" x2="8" y2="2" class="M" stroke-opacity="1" data-index="12" stroke-width="0.1" stroke="#ff0000"></line><line x1="0" y1="3" x2="4" y2="0" class="M" stroke-opacity="1" data-index="14" stroke-width="0.1" stroke="#ff0000"></line><line x1="4" y1="0" x2="8" y2="3" class="M" stroke-opacity="1" data-index="16" stroke-width="0.1" stroke="#ff0000"></line><line x1="0" y1="5" x2="4" y2="0" class="V" stroke-opacity="1" data-index="18" stroke-width="0.1" stroke="#0000ff"></line><line x1="4" y1="0" x2="0" y2="7" class="V" stroke-opacity="1" data-index="20" stroke-width="0.1" stroke="#0000ff"></line><line x1="4" y1="0" x2="0" y2="9" class="V" stroke-opacity="1" data-index="22" stroke-width="0.1" stroke="#0000ff"></line><line x1="4" y1="0" x2="8" y2="5" class="V" stroke-opacity="1" data-index="24" stroke-width="0.1" stroke="#0000ff"></line><line x1="4" y1="0" x2="8" y2="7" class="V" stroke-opacity="1" data-index="26" stroke-width="0.1" stroke="#0000ff"></line><line x1="4" y1="0" x2="8" y2="9" class="V" stroke-opacity="1" data-index="28" stroke-width="0.1" stroke="#0000ff"></line><line x1="4" y1="0" x2="2" y2="11" class="V" stroke-opacity="0.5" data-index="30" stroke-width="0.1" stroke="#0000ff"></line><line x1="4" y1="0" x2="6" y2="11" class="V" stroke-opacity="0.5" data-index="32" stroke-width="0.1" stroke="#0000ff"></line><line x1="4" y1="0" x2="4" y2="11" class="V" stroke-opacity="1" data-index="34" stroke-width="0.1" stroke="#0000ff"></line><line x1="0" y1="0" x2="0" y2="1" class="B" stroke-opacity="1" data-index="0" stroke="#000000" stroke-width="0.1"></line><line x1="8" y1="0" x2="4" y2="0" class="B" stroke-opacity="1" data-index="3" stroke="#000000" stroke-width="0.1"></line><line x1="4" y1="0" x2="0" y2="0" class="B" stroke-opacity="1" data-index="4" stroke="#000000" stroke-width="0.1"></line><line x1="0" y1="1" x2="0" y2="2" class="B" stroke-opacity="1" data-index="5" stroke="#000000" stroke-width="0.1"></line><line x1="8" y1="1" x2="8" y2="0" class="B" stroke-opacity="1" data-index="7" stroke="#000000" stroke-width="0.1"></line><line x1="8" y1="2" x2="8" y2="1" class="B" stroke-opacity="1" data-index="11" stroke="#000000" stroke-width="0.1"></line><line x1="0" y1="2" x2="0" y2="3" class="B" stroke-opacity="1" data-index="9" stroke="#000000" stroke-width="0.1"></line><line x1="8" y1="3" x2="8" y2="2" class="B" stroke-opacity="1" data-index="15" stroke="#000000" stroke-width="0.1"></line><line x1="0" y1="3" x2="0" y2="5" class="B" stroke-opacity="1" data-index="13" stroke="#000000" stroke-width="0.1"></line><line x1="0" y1="5" x2="0" y2="7" class="B" stroke-opacity="1" data-index="17" stroke="#000000" stroke-width="0.1"></line><line x1="0" y1="7" x2="0" y2="9" class="B" stroke-opacity="1" data-index="19" stroke="#000000" stroke-width="0.1"></line><line x1="0" y1="9" x2="0" y2="11" class="B" stroke-opacity="1" data-index="21" stroke="#000000" stroke-width="0.1"></line><line x1="8" y1="5" x2="8" y2="3" class="B" stroke-opacity="1" data-index="23" stroke="#000000" stroke-width="0.1"></line><line x1="8" y1="7" x2="8" y2="5" class="B" stroke-opacity="1" data-index="25" stroke="#000000" stroke-width="0.1"></line><line x1="8" y1="11" x2="8" y2="9" class="B" stroke-opacity="1" data-index="2" stroke="#000000" stroke-width="0.1"></line><line x1="8" y1="9" x2="8" y2="7" class="B" stroke-opacity="1" data-index="27" stroke="#000000" stroke-width="0.1"></line><line x1="0" y1="11" x2="2" y2="11" class="B" stroke-opacity="1" data-index="1" stroke="#000000" stroke-width="0.1"></line><line x1="6" y1="11" x2="8" y2="11" class="B" stroke-opacity="1" data-index="31" stroke="#000000" stroke-width="0.1"></line><line x1="2" y1="11" x2="4" y2="11" class="B" stroke-opacity="1" data-index="29" stroke="#000000" stroke-width="0.1"></line><line x1="4" y1="11" x2="6" y2="11" class="B" stroke-opacity="1" data-index="33" stroke="#000000" stroke-width="0.1"></line></g><style>line { stroke-linecap: round; }</style></svg>