<?xml version='1.0' encoding='UTF-8'?>
<svg xmlns="http://www.w3.org/2000/svg" version="1.1" width="3456px" height="3456px" viewBox="0 0 3200 3200">
	<rect x="0" y="0" fill="#FFFFFF" stroke="#000000" stroke-width="10" width="3200" height="3200"/>
	<line fill="none" stroke="#FF0000" stroke-width="10" x1="700" y1="1600" x2="2500" y2="1600"/>
	<line fill="none" stroke="#FF0000" stroke-width="10" x1="1600" y1="700" x2="1600" y2="2500"/>
	<line fill="none" stroke="#FF0000" stroke-width="10" x1="0" y1="0" x2="1600" y2="700"/>
	<line fill="none" stroke="#FF0000" stroke-width="10" x1="3200" y1="0" x2="1600" y2="700"/>
	<line fill="none" stroke="#FF0000" stroke-width="10" x1="3200" y1="0" x2="2500" y2="1600"/>
	<line fill="none" stroke="#FF0000" stroke-width="10" x1="3200" y1="3200" x2="2500" y2="1600"/>
	<line fill="none" stroke="#FF0000" stroke-width="10" x1="3200" y1="3200" x2="1600" y2="2500"/>
	<line fill="none" stroke="#FF0000" stroke-width="10" x1="0" y1="3200" x2="1600" y2="2500"/>
	<line fill="none" stroke="#FF0000" stroke-width="10" x1="0" y1="3200" x2="700" y2="1600"/>
	<line fill="none" stroke="#FF0000" stroke-width="10" x1="0" y1="0" x2="700" y2="1600"/>
	<line fill="none" stroke="#0000FF" stroke-width="10" x1="1600" y1="700" x2="2500" y2="1600"/>
	<line fill="none" stroke="#0000FF" stroke-width="10" x1="700" y1="1600" x2="1600" y2="2500"/>
	<line fill="none" stroke="#0000FF" stroke-width="10" x1="600" y1="1400" x2="1100" y2="1100"/>
	<line fill="none" stroke="#0000FF" stroke-width="10" x1="1400" y1="600" x2="1100" y2="1100"/>
	<line fill="none" stroke="#0000FF" stroke-width="10" x1="1800" y1="2600" x2="2100" y2="2100"/>
	<line fill="none" stroke="#0000FF" stroke-width="10" x1="2600" y1="1800" x2="2100" y2="2100"/>
	<line fill="none" stroke="#FF0000" stroke-width="10" x1="1400" y1="600" x2="1600" y2="0"/>
	<line fill="none" stroke="#FF0000" stroke-width="10" x1="600" y1="1400" x2="0" y2="1600"/>
	<line fill="none" stroke="#FF0000" stroke-width="10" x1="2600" y1="1800" x2="3200" y2="1600"/>
	<line fill="none" stroke="#FF0000" stroke-width="10" x1="1800" y1="2600" x2="1600" y2="3200"/>
	<line fill="none" stroke="#0000FF" stroke-width="10" x1="1100" y1="1100" x2="2100" y2="2100"/>
	<line fill="none" stroke="#FF0000" stroke-width="10" x1="2100" y1="2100" x2="3200" y2="3200"/>
	<line fill="none" stroke="#FF0000" stroke-width="10" x1="1100" y1="1100" x2="300" y2="300"/>
	<line fill="none" stroke="#0000FF" stroke-width="10" x1="0" y1="500" x2="100" y2="300"/>
	<line fill="none" stroke="#FF0000" stroke-width="10" x1="100" y1="300" x2="300" y2="300"/>
	<line fill="none" stroke="#0000FF" stroke-width="10" x1="500" y1="0" x2="300" y2="100"/>
	<line fill="none" stroke="#FF0000" stroke-width="10" x1="300" y1="100" x2="300" y2="300"/>
	<line fill="none" stroke="#0000FF" stroke-width="10" x1="0" y1="0" x2="300" y2="300"/>
</svg>