<?xml version="1.0" encoding="utf-8"?>
<svg version="1.1" xmlns="http://www.w3.org/2000/svg" width="1000px" height="1000px">
    <rect x="0" y="0" fill="#FFFFFF" stroke="#000000" stroke-width="10" width="1000" height="1000"/>
    <line x1="200" y1="0" x2="200" y2="700" stroke-opacity="1" stroke-width="10" stroke="#ff0000"></line>
    <line x1="500" y1="0" x2="500" y2="700" stroke-opacity="1" stroke-width="10" stroke="#0000ff"></line>
    <line x1="200" y1="700" x2="200" y2="1000" stroke-opacity="1" stroke-width="10" stroke="#ff0000"></line>
    <line x1="000" y1="700" x2="200" y2="700" stroke-opacity="1" stroke-width="10" stroke="#ff0000"></line>
    <line x1="500" y1="700" x2="500" y2="1000" stroke-opacity="1" stroke-width="10" stroke="#0000ff"></line>
    <line x1="200" y1="700" x2="500" y2="700" stroke-opacity="1" stroke-width="10" stroke="#0000ff"></line>
    <line x1="700" y1="0" x2="700" y2="700" stroke-opacity="1" stroke-width="10" stroke="#ff0000"></line>
    <line x1="700" y1="700" x2="700" y2="1000" stroke-opacity="1" stroke-width="10" stroke="#ff0000"></line>
    <line x1="500" y1="700" x2="700" y2="700" stroke-opacity="1" stroke-width="10" stroke="#ff0000"></line>
    <line x1="700" y1="700" x2="1000" y2="700" stroke-opacity="1" stroke-width="10" stroke="#0000ff"></line>


    <!-- <line x1="0" y1="0" x2="0" y2="7" class="B" stroke-opacity="1" data-index="0" stroke="#000000" stroke-width="0.1"></line>
    <line x1="0" y1="10" x2="2" y2="10" class="B" stroke-opacity="1" data-index="1" stroke="#000000" stroke-width="0.1"></line>
    <line x1="10" y1="0" x2="7" y2="0" class="B" stroke-opacity="1" data-index="3" stroke="#000000" stroke-width="0.1"></line>
    <line x1="2" y1="0" x2="0" y2="0" class="B" stroke-opacity="1" data-index="4" stroke="#000000" stroke-width="0.1"></line>
    <line x1="2" y1="10" x2="5" y2="10" class="B" stroke-opacity="1" data-index="5" stroke="#000000" stroke-width="0.1"></line>
    <line x1="5" y1="0" x2="2" y2="0" class="B" stroke-opacity="1" data-index="7" stroke="#000000" stroke-width="0.1"></line>
    <line x1="5" y1="10" x2="7" y2="10" class="B" stroke-opacity="1" data-index="8" stroke="#000000" stroke-width="0.1"></line>
    <line x1="7" y1="0" x2="5" y2="0" class="B" stroke-opacity="1" data-index="10" stroke="#000000" stroke-width="0.1"></line>
    <line x1="7" y1="10" x2="10" y2="10" class="B" stroke-opacity="1" data-index="11" stroke="#000000" stroke-width="0.1"></line>
    <line x1="0" y1="7" x2="0" y2="10" class="B" stroke-opacity="1" data-index="13" stroke="#000000" stroke-width="0.1"></line>
    <line x1="10" y1="10" x2="10" y2="7" class="B" stroke-opacity="1" data-index="2" stroke="#000000" stroke-width="0.1"></line>
    <line x1="10" y1="7" x2="10" y2="0" class="B" stroke-opacity="1" data-index="20" stroke="#000000" stroke-width="0.1"></line> -->
</svg>