<svg xmlns="http://www.w3.org/2000/svg" version="1.1" xmlns:xlink="http://www.w3.org/1999/xlink" xmlns:svgjs="http://svgjs.dev/svgjs" viewBox="-0.5 -0.5 11 11" width="11cm" height="11cm"><g class="crease"><line x1="2" y1="0" x2="2" y2="7" class="M" stroke-opacity="1" data-index="6" stroke-width="0.1" stroke="#ff0000"></line><line x1="5" y1="0" x2="5" y2="7" class="V" stroke-opacity="1" data-index="9" stroke-width="0.1" stroke="#0000ff"></line><line x1="2" y1="7" x2="2" y2="10" class="M" stroke-opacity="1" data-index="14" stroke-width="0.1" stroke="#ff0000"></line><line x1="0" y1="7" x2="2" y2="7" class="M" stroke-opacity="1" data-index="15" stroke-width="0.1" stroke="#ff0000"></line><line x1="5" y1="7" x2="5" y2="10" class="V" stroke-opacity="1" data-index="16" stroke-width="0.1" stroke="#0000ff"></line><line x1="2" y1="7" x2="5" y2="7" class="V" stroke-opacity="1" data-index="17" stroke-width="0.1" stroke="#0000ff"></line><line x1="7" y1="0" x2="7" y2="7" class="M" stroke-opacity="1" data-index="12" stroke-width="0.1" stroke="#ff0000"></line><line x1="7" y1="7" x2="7" y2="10" class="M" stroke-opacity="1" data-index="18" stroke-width="0.1" stroke="#ff0000"></line><line x1="5" y1="7" x2="7" y2="7" class="M" stroke-opacity="1" data-index="19" stroke-width="0.1" stroke="#ff0000"></line><line x1="7" y1="7" x2="10" y2="7" class="V" stroke-opacity="1" data-index="21" stroke-width="0.1" stroke="#0000ff"></line><line x1="0" y1="0" x2="0" y2="7" class="B" stroke-opacity="1" data-index="0" stroke="#000000" stroke-width="0.1"></line><line x1="0" y1="10" x2="2" y2="10" class="B" stroke-opacity="1" data-index="1" stroke="#000000" stroke-width="0.1"></line><line x1="10" y1="0" x2="7" y2="0" class="B" stroke-opacity="1" data-index="3" stroke="#000000" stroke-width="0.1"></line><line x1="2" y1="0" x2="0" y2="0" class="B" stroke-opacity="1" data-index="4" stroke="#000000" stroke-width="0.1"></line><line x1="2" y1="10" x2="5" y2="10" class="B" stroke-opacity="1" data-index="5" stroke="#000000" stroke-width="0.1"></line><line x1="5" y1="0" x2="2" y2="0" class="B" stroke-opacity="1" data-index="7" stroke="#000000" stroke-width="0.1"></line><line x1="5" y1="10" x2="7" y2="10" class="B" stroke-opacity="1" data-index="8" stroke="#000000" stroke-width="0.1"></line><line x1="7" y1="0" x2="5" y2="0" class="B" stroke-opacity="1" data-index="10" stroke="#000000" stroke-width="0.1"></line><line x1="7" y1="10" x2="10" y2="10" class="B" stroke-opacity="1" data-index="11" stroke="#000000" stroke-width="0.1"></line><line x1="0" y1="7" x2="0" y2="10" class="B" stroke-opacity="1" data-index="13" stroke="#000000" stroke-width="0.1"></line><line x1="10" y1="10" x2="10" y2="7" class="B" stroke-opacity="1" data-index="2" stroke="#000000" stroke-width="0.1"></line><line x1="10" y1="7" x2="10" y2="0" class="B" stroke-opacity="1" data-index="20" stroke="#000000" stroke-width="0.1"></line></g><style>line { stroke-linecap: round; }</style></svg>