<?xml version='1.0' encoding='utf-8'?>
<svg version="1.1" xmlns="http://www.w3.org/2000/svg" width="1000px" height="1000px">
  <rect x="0" y="0" width="1000" height="1000" fill="#FFFFFF" stroke="#000000" stroke-width="10"/>
  <line x1="500.0" y1="0.0" x2="500.0" y2="750.0" stroke="#0000ff" stroke-width="10" stroke-opacity="1"/>
  <line x1="500.0" y1="750.0" x2="500.0" y2="1000.0" stroke="#0000ff" stroke-width="10" stroke-opacity="1"/>
  <line x1="125.0" y1="750.0" x2="500.0" y2="750.0" stroke="#0000ff" stroke-width="10" stroke-opacity="0.5"/>
  <line x1="750.0" y1="750.0" x2="1000.0" y2="750.0" stroke="#0000ff" stroke-width="10" stroke-opacity="0.5"/>
  <line x1="125.0" y1="0.0" x2="125.0" y2="750.0" stroke="#ff0000" stroke-width="10" stroke-opacity="1"/>
  <line x1="750.0" y1="0.0" x2="750.0" y2="750.0" stroke="#ff0000" stroke-width="10" stroke-opacity="1"/>
  <line x1="125.0" y1="750.0" x2="125.0" y2="1000.0" stroke="#ff0000" stroke-width="10" stroke-opacity="1"/>
  <line x1="750.0" y1="750.0" x2="750.0" y2="1000.0" stroke="#ff0000" stroke-width="10" stroke-opacity="1"/>
  <line x1="0.0" y1="750.0" x2="125.0" y2="750.0" stroke="#ff0000" stroke-width="10" stroke-opacity="0.5"/>
  <line x1="500.0" y1="750.0" x2="750.0" y2="750.0" stroke="#ff0000" stroke-width="10" stroke-opacity="0.5"/>
  <line x1="0.0" y1="750.0" x2="125.0" y2="1000.0" stroke="#ffff00" stroke-width="10" stroke-opacity="1"/>
  <line x1="125.0" y1="1000.0" x2="500.0" y2="750.0" stroke="#ffff00" stroke-width="10" stroke-opacity="1"/>
  <line x1="500.0" y1="1000.0" x2="750.0" y2="750.0" stroke="#ffff00" stroke-width="10" stroke-opacity="1"/>
  <line x1="750.0" y1="750.0" x2="1000.0" y2="1000.0" stroke="#ffff00" stroke-width="10" stroke-opacity="1"/>
  <line x1="0.0" y1="0.0" x2="125.0" y2="750.0" stroke="#ffff00" stroke-width="10" stroke-opacity="1"/>
  <line x1="500.0" y1="0.0" x2="125.0" y2="750.0" stroke="#ffff00" stroke-width="10" stroke-opacity="1"/>
  <line x1="500.0" y1="0.0" x2="750.0" y2="750.0" stroke="#ffff00" stroke-width="10" stroke-opacity="1"/>
  <line x1="750.0" y1="750.0" x2="1000.0" y2="0.0" stroke="#ffff00" stroke-width="10" stroke-opacity="1"/>
</svg>
